<svg width="64" height="64" viewBox="0 0 64 64" fill="none" xmlns="http://www.w3.org/2000/svg">
<path d="M0 10C0 4.47715 4.47715 0 10 0H54C59.5228 0 64 4.47715 64 10V54.001C64 59.5238 59.5228 64.001 54 64.001H10C4.47715 64.001 0 59.5238 0 54.001V10Z" fill="#726ACE"/>
<path d="M29.4443 11.5988V48.4851H34.5389V11.5988L31.9916 6L29.4443 11.5988Z" fill="white"/>
<path d="M21.9619 56.1466H27.0565V16.3108L21.9619 26.3186V56.1466Z" fill="white"/>
<path d="M14.4908 53.1971H19.5854V30.9673L14.4908 41.1018V53.1971Z" fill="white"/>
<path d="M12.0946 55.7583V44.759L7 55.7583H12.0946Z" fill="white"/>
<path d="M36.9323 58H42.0269V26.3186L36.9323 16.3108V58Z" fill="white"/>
<path d="M44.4062 50.8866H49.5009V41.1018L44.4062 30.9673V50.8866Z" fill="white"/>
<path d="M51.8942 44.759L51.9026 55.7583H57L51.8942 44.759Z" fill="white"/>
</svg>
