<svg width="432" height="433" viewBox="0 0 432 433" fill="none" xmlns="http://www.w3.org/2000/svg">
<g filter="url(#filter0_d_2_300)">
<path d="M377.305 361.859C368.639 370.845 360.432 376.638 353.952 381.223C277.752 435.036 187.59 419.355 168.44 415.523C140.15 409.868 85.4504 398.923 45.9114 353.166C-13.9076 283.912 -4.59959 174.822 41.8004 102.806C50.2824 89.6312 95.1244 16.5162 186.26 4.79422C241.419 -2.29778 305.701 12.0082 352.26 50.3992C449.963 130.958 443.01 293.772 377.305 361.859Z" fill="#FAF9F9"/>
<path d="M11.4884 199.785C11.5464 197.432 13.8294 195.49 16.6334 195.49H122.578C125.425 195.49 128.214 197.523 128.214 199.922V413.262C128.156 413.867 127.97 414.452 127.669 414.979C127.368 415.506 126.958 415.963 126.466 416.319C125.388 417.155 124.059 417.602 122.694 417.587L11.9224 417.327C10.5795 417.34 9.27474 416.88 8.2374 416.027C7.7741 415.647 7.40045 415.169 7.14308 414.627C6.88571 414.085 6.75094 413.494 6.7484 412.894L11.4884 199.785Z" fill="#B5B5B5"/>
<path d="M89.5274 220.623L119.706 220.592L119.937 207.586H89.7294L89.5274 220.623Z" fill="white"/>
<path d="M55.6934 220.607L85.8434 220.577L86.0434 207.586H55.8634L55.6934 220.607Z" fill="white"/>
<path d="M21.8994 220.607L52.0204 220.577L52.1944 207.586H22.0444L21.8994 220.607Z" fill="#D6D5D5"/>
<path d="M89.1334 243.955L119.269 243.97L119.515 231.056L89.3504 231.041L89.1334 243.955Z" fill="white"/>
<path d="M55.3704 243.919L85.4634 243.935L85.6794 231.035L55.5434 231.019L55.3704 243.919Z" fill="white"/>
<path d="M21.6384 243.906L51.7014 243.922L51.8744 231.022L21.7814 231.007L21.6384 243.906Z" fill="#D6D5D5"/>
<path d="M88.7564 267.139L118.834 267.155L119.08 254.286L88.9734 254.271L88.7564 267.139Z" fill="white"/>
<path d="M55.0504 267.118L85.0994 267.148L85.2994 254.28L55.2214 254.264L55.0504 267.118Z" fill="white"/>
<path d="M21.3714 267.084L51.3914 267.114L51.5644 254.246L21.5154 254.231L21.3714 267.084Z" fill="#D6D5D5"/>
<path d="M88.4034 290.231L118.423 290.261L118.654 277.439L88.6054 277.408L88.4034 290.231Z" fill="white"/>
<path d="M54.7454 290.182L84.7364 290.212L84.9524 277.405L54.9184 277.374L54.7454 290.182Z" fill="white"/>
<path d="M21.1234 290.141L51.0864 290.187L51.2594 277.365L21.2684 277.334L21.1234 290.141Z" fill="#D6D5D5"/>
<path d="M88.0264 313.234L117.988 313.28L118.234 300.488L88.2284 300.457L88.0264 313.234Z" fill="white"/>
<path d="M54.4254 313.165L84.3724 313.211L84.5724 300.434L54.5964 300.404L54.4254 313.165Z" fill="white"/>
<path d="M20.8604 313.124L50.7804 313.171L50.9534 300.393L21.0054 300.363L20.8604 313.124Z" fill="#D6D5D5"/>
<path d="M87.6564 336.158L117.575 336.218L117.806 323.472L87.8594 323.426L87.6564 336.158Z" fill="white"/>
<path d="M54.1254 336.086L84.0144 336.147L84.2144 323.416L54.2954 323.355L54.1254 336.086Z" fill="white"/>
<path d="M20.6174 336.035L50.4784 336.081L50.6374 323.365L20.7474 323.319L20.6174 336.035Z" fill="#D6D5D5"/>
<path d="M87.2694 359.029L117.145 359.09L117.376 346.39L87.4864 346.329L87.2694 359.029Z" fill="white"/>
<path d="M53.7914 358.945L83.6244 359.006L83.8244 346.321L53.9634 346.261L53.7914 358.945Z" fill="white"/>
<path d="M20.3454 358.872L50.1454 358.933L50.3184 346.248L20.4854 346.187L20.3454 358.872Z" fill="#D6D5D5"/>
<path d="M86.9024 381.783L116.72 381.86L116.951 369.205L87.1054 369.129L86.9024 381.783Z" fill="white"/>
<path d="M53.4754 381.693L83.2644 381.77L83.4644 369.13L53.6464 369.054L53.4754 381.693Z" fill="#D6D5D5"/>
<path d="M20.0864 381.604L49.8464 381.695L50.0194 369.055L20.2304 368.979L20.0864 381.604Z" fill="#D6D5D5"/>
<path d="M86.5354 404.51L116.31 404.602L116.541 391.993L86.7414 391.901L86.5354 404.51Z" fill="#D6D5D5"/>
<path d="M53.1794 404.414L82.9104 404.491L83.1104 391.897L53.3514 391.821L53.1794 404.414Z" fill="#D6D5D5"/>
<path d="M19.8474 404.309L49.5474 404.4L49.7204 391.807L19.9894 391.73L19.8474 404.309Z" fill="#D6D5D5"/>
<path d="M287.92 199.031C287.978 196.678 290.262 194.736 293.066 194.736H399.01C401.857 194.736 404.647 196.769 404.647 199.168V412.508C404.589 413.113 404.403 413.698 404.101 414.225C403.8 414.752 403.39 415.209 402.898 415.565C401.82 416.401 400.491 416.848 399.126 416.833L288.354 416.573C287.011 416.586 285.707 416.126 284.669 415.273C284.206 414.893 283.833 414.415 283.575 413.874C283.318 413.333 283.183 412.742 283.179 412.142L287.92 199.031Z" fill="#B5B5B5"/>
<g opacity="0.5">
<path opacity="0.5" d="M365.943 219.891L396.136 219.861L396.367 206.854H366.159L365.943 219.891Z" fill="#FFFEFE"/>
<path opacity="0.5" d="M332.122 219.891L362.272 219.845L362.472 206.854H332.292L332.122 219.891Z" fill="#FFFEFE"/>
<path opacity="0.5" d="M298.326 219.874L328.447 219.844L328.62 206.853H298.47L298.326 219.874Z" fill="#FFFEFE"/>
<path opacity="0.5" d="M365.569 243.235L395.705 243.251L395.936 230.336L365.786 230.32L365.569 243.235Z" fill="#FFFEFE"/>
<path opacity="0.5" d="M331.807 243.226L361.899 243.242L362.116 230.327L331.98 230.311L331.807 243.226Z" fill="#FFFEFE"/>
<path opacity="0.5" d="M298.073 243.191L328.136 243.221L328.309 230.306H298.218L298.073 243.191Z" fill="#FFFEFE"/>
<path opacity="0.5" d="M365.189 266.397L395.266 266.428L395.513 253.559L365.406 253.528L365.189 266.397Z" fill="#FFFEFE"/>
<path opacity="0.5" d="M331.484 266.378L361.533 266.409L361.733 253.54L331.655 253.525L331.484 266.378Z" fill="#FFFEFE"/>
<path opacity="0.5" d="M297.805 266.344L327.805 266.375L327.979 253.522L297.944 253.492L297.805 266.344Z" fill="#FFFEFE"/>
<path opacity="0.5" d="M364.812 289.483L394.847 289.514L395.074 276.692L365.025 276.661L364.812 289.483Z" fill="#FFFEFE"/>
<path opacity="0.5" d="M331.167 289.443L361.158 289.489L361.358 276.666L331.339 276.636L331.167 289.443Z" fill="#FFFEFE"/>
<path opacity="0.5" d="M297.545 289.408L327.507 289.439L327.681 276.631L297.69 276.601L297.545 289.408Z" fill="#FFFEFE"/>
<path opacity="0.5" d="M364.455 312.502L394.418 312.548L394.664 299.771L364.658 299.725L364.455 312.502Z" fill="#FFFEFE"/>
<path opacity="0.5" d="M330.854 312.432L360.802 312.478L361.002 299.716L331.025 299.67L330.854 312.432Z" fill="#FFFEFE"/>
<path opacity="0.5" d="M297.289 312.396L327.208 312.442L327.381 299.681L297.434 299.634L297.289 312.396Z" fill="#FFFEFE"/>
<path opacity="0.5" d="M364.072 335.424L393.991 335.485L394.222 322.754L364.275 322.693L364.072 335.424Z" fill="#FFFEFE"/>
<path opacity="0.5" d="M330.531 335.362L360.431 335.423L360.631 322.692L330.712 322.645L330.531 335.362Z" fill="#FFFEFE"/>
<path opacity="0.5" d="M297.023 335.302L326.884 335.363L327.058 322.632L297.168 322.586L297.023 335.302Z" fill="#FFFEFE"/>
<path opacity="0.5" d="M363.705 358.299L393.581 358.36L393.812 345.675L363.912 345.614L363.705 358.299Z" fill="#FFFEFE"/>
<path opacity="0.5" d="M330.226 358.219L360.058 358.28L360.258 345.595L330.397 345.534L330.226 358.219Z" fill="#FFFEFE"/>
<path opacity="0.5" d="M296.781 358.143L326.581 358.204L326.754 345.534L296.922 345.474L296.781 358.143Z" fill="#FFFEFE"/>
<path opacity="0.5" d="M363.338 381.062L393.156 381.139L393.387 368.499L363.541 368.422L363.338 381.062Z" fill="#FFFEFE"/>
<path opacity="0.5" d="M329.911 380.965L359.7 381.057L359.9 368.403L330.083 368.342L329.911 380.965Z" fill="#FFFEFE"/>
<path opacity="0.5" d="M296.522 380.887L326.282 380.963L326.455 368.324L296.666 368.247L296.522 380.887Z" fill="#FFFEFE"/>
<path opacity="0.5" d="M362.964 403.769L392.738 403.86L392.97 391.251L363.17 391.175L362.964 403.769Z" fill="#FFFEFE"/>
<path opacity="0.5" d="M329.609 403.675L359.34 403.766L359.54 391.157L329.78 391.08L329.609 403.675Z" fill="#FFFEFE"/>
<path opacity="0.5" d="M296.277 403.58L325.977 403.657L326.15 391.063L296.405 390.987L296.277 403.58Z" fill="#FFFEFE"/>
</g>
<path d="M192.834 262.912C183.694 234.212 165.996 211.331 145.042 197.881C126.278 185.945 112.92 167.15 107.815 145.505C107.296 143.228 106.669 140.951 105.935 138.674C94.9464 104.149 64.7774 82.9362 38.5664 91.2802C12.3854 99.6252 0.0514021 134.38 11.0404 168.905C13.1956 175.712 16.2049 182.218 19.9964 188.268C31.7963 206.726 36.0687 229.005 31.9334 250.518C28.0974 269.729 29.1334 291.355 35.9984 312.874C46.2234 344.974 67.1314 369.789 91.3394 382.274C100.504 386.987 108.726 393.343 115.594 401.026C126.965 413.788 142.967 419.779 157.685 415.102C173.565 410.043 183.469 393.98 184.185 375.212C184.661 364.6 187.021 354.157 191.154 344.371C200.75 321.157 202.081 291.936 192.834 262.912Z" fill="#DEDEDE"/>
<path opacity="0.57" d="M59.4554 125.096C70.1554 146.829 80.1334 168.882 89.8694 191.028C92.3144 196.561 94.6524 202.139 97.0224 207.718L100.568 216.078L104.053 224.469C106.345 230.063 108.729 235.641 110.961 241.269L117.671 258.142C121.996 269.451 126.413 280.715 130.54 292.102C132.603 297.787 134.789 303.441 136.729 309.173L142.659 326.336C150.331 349.306 157.423 372.476 163.323 395.967L162.314 396.226L157.223 378.816L155.955 374.46L154.579 370.134L151.829 361.499L149.093 352.863C148.193 349.975 147.167 347.132 146.204 344.274C144.248 338.558 142.338 332.827 140.351 327.111C132.235 304.339 123.829 281.674 114.951 259.192C110.426 247.992 105.995 236.74 101.394 225.553L97.9704 217.163L94.4704 208.803C92.1471 203.225 89.7984 197.656 87.4244 192.098C82.7471 180.957 77.9834 169.841 73.1334 158.75C68.3334 147.654 63.4581 136.588 58.5074 125.55L59.4554 125.096Z" fill="white"/>
<path d="M269.329 205.867C265.05 174.521 250.929 147.652 231.762 129.939C214.556 114.169 204.168 92.3187 202.8 69.0192C202.662 66.5742 202.433 64.0982 202.1 61.6062C196.965 23.9062 169.7 -3.51577 141.2 0.36623C112.7 4.24823 93.7594 37.9662 98.9104 75.6662C99.911 83.0971 101.842 90.3727 104.656 97.3222C113.356 118.596 114.07 142.408 105.787 163.866C98.3874 183.047 95.5934 205.605 98.7874 229.111C103.571 264.17 120.658 293.622 143.369 310.922C151.975 317.464 159.305 325.531 164.995 334.722C174.41 349.974 189.846 359.084 205.833 356.898C223.088 354.545 236.186 339.72 240.282 320.447C242.678 309.565 246.977 299.191 252.982 289.804C267.036 267.535 273.639 237.564 269.329 205.867Z" fill="#C5C4C4"/>
<path opacity="0.57" d="M156.627 39.1242C163.749 63.5312 170.077 88.1532 176.145 112.836C177.658 119.011 179.079 125.2 180.531 131.39L182.686 140.682L184.764 149.99C186.125 156.19 187.576 162.39 188.876 168.605L192.758 187.281C195.188 199.753 197.725 212.224 199.926 224.741C201.026 231.007 202.265 237.241 203.243 243.524L206.269 262.353C210.059 287.494 213.207 312.753 215.069 338.112L213.984 338.204L211.866 319.284L211.346 314.547L210.704 309.824L209.404 300.394L208.136 290.964C207.723 287.816 207.173 284.683 206.714 281.549C205.721 275.283 204.788 269.001 203.765 262.735C199.499 237.717 194.837 212.764 189.78 187.877C187.121 175.467 184.58 163.027 181.833 150.632L179.8 141.324L177.691 132.032C176.285 125.842 174.891 119.652 173.427 113.478C170.6 101.099 167.686 88.7399 164.685 76.4012C161.735 64.0519 158.698 51.7232 155.575 39.4152L156.627 39.1242Z" fill="white"/>
<path d="M374.717 421.346H151.178C150.294 421.296 149.466 420.899 148.874 420.24C148.282 419.581 147.975 418.715 148.02 417.83V81.6552C147.976 80.771 148.283 79.905 148.874 79.2464C149.466 78.5878 150.294 78.1901 151.178 78.1402H374.718C375.603 78.1896 376.432 78.587 377.024 79.2457C377.616 79.9044 377.923 80.7707 377.878 81.6552V417.816C377.926 418.703 377.62 419.573 377.027 420.234C376.435 420.896 375.604 421.296 374.717 421.346V421.346Z" fill="#EBEBEB"/>
<path d="M338.75 376.143H186.662C180.894 376.143 176.225 370.943 176.225 364.528V141.328C176.225 134.909 180.894 129.713 186.662 129.713H338.75C344.518 129.713 349.187 134.913 349.187 141.328V364.528C349.184 370.932 344.515 376.143 338.75 376.143Z" fill="#C0C0C0"/>
<path d="M332.996 358.997H192.557C191.681 358.948 190.86 358.554 190.273 357.901C189.686 357.248 189.382 356.39 189.426 355.513V153.467C189.382 152.59 189.686 151.732 190.273 151.079C190.859 150.425 191.681 150.031 192.557 149.982H332.996C333.873 150.031 334.694 150.425 335.281 151.079C335.868 151.732 336.172 152.59 336.127 153.467V355.513C336.172 356.39 335.868 357.248 335.281 357.901C334.694 358.554 333.873 358.948 332.996 358.997V358.997Z" fill="#EBEBEB"/>
<path d="M267.399 109.87C268.699 108.366 269.414 106.444 269.414 104.456C269.414 102.468 268.699 100.547 267.399 99.0422C266.799 98.3391 266.053 97.7746 265.213 97.3875C264.373 97.0004 263.459 96.8 262.534 96.8C261.609 96.8 260.695 97.0004 259.855 97.3875C259.015 97.7746 258.269 98.3391 257.668 99.0422C256.369 100.547 255.653 102.468 255.653 104.456C255.653 106.444 256.369 108.366 257.668 109.87C258.269 110.573 259.015 111.138 259.855 111.525C260.695 111.912 261.609 112.112 262.534 112.112C263.459 112.112 264.373 111.912 265.213 111.525C266.053 111.138 266.799 110.573 267.399 109.87V109.87Z" fill="#726ACE"/>
<path d="M306.958 227.996L218.487 229.631C211.758 229.753 206.278 235.576 206.278 242.652V304.652C206.278 311.713 211.757 317.2 218.487 316.894L306.958 312.935C313.317 312.645 318.458 306.884 318.458 300.067V240.15C318.44 233.318 313.317 227.877 306.958 227.996Z" fill="#726ACE"/>
<path d="M311.429 216.776C310.771 216.764 310.122 216.621 309.52 216.355C308.917 216.09 308.374 215.707 307.921 215.229C307.469 214.75 307.116 214.187 306.883 213.571C306.651 212.955 306.543 212.299 306.567 211.641V198.069C306.567 184.451 296.225 173.417 283.412 173.448L254.585 173.539C241.442 173.585 230.676 184.956 230.676 198.879V212.772C230.704 214.164 230.185 215.51 229.232 216.524C228.279 217.538 226.967 218.139 225.576 218.198C224.892 218.196 224.215 218.057 223.585 217.79C222.956 217.522 222.386 217.131 221.91 216.639C221.434 216.148 221.061 215.566 220.813 214.928C220.565 214.29 220.448 213.609 220.467 212.925V199.002C220.467 179.118 235.861 162.948 254.594 162.948H283.421C301.621 162.948 316.271 178.66 316.271 197.978V211.504C316.309 212.84 315.824 214.138 314.92 215.123C314.016 216.107 312.764 216.7 311.429 216.776V216.776Z" fill="#726ACE"/>
<path d="M277.032 262.346C277.032 255.454 271.622 250.046 265.057 250.546C259.248 250.99 254.441 256.17 254.125 262.346C253.974 264.536 254.428 266.726 255.438 268.675C256.448 270.624 257.976 272.257 259.852 273.396C260.612 273.877 261.209 274.577 261.565 275.403C261.921 276.229 262.019 277.143 261.846 278.026L259.319 293.799C259.227 294.248 259.236 294.713 259.346 295.158C259.456 295.603 259.664 296.018 259.955 296.373C260.245 296.728 260.612 297.013 261.027 297.208C261.442 297.403 261.896 297.502 262.354 297.499L268.854 297.24C269.319 297.201 269.77 297.065 270.179 296.841C270.588 296.617 270.946 296.311 271.23 295.942C271.514 295.572 271.718 295.148 271.829 294.695C271.941 294.242 271.956 293.771 271.875 293.312L269.346 277.675C269.207 276.767 269.33 275.839 269.702 274.999C270.075 274.159 270.68 273.444 271.446 272.938C273.177 271.768 274.592 270.19 275.566 268.342C276.541 266.494 277.044 264.435 277.032 262.346V262.346Z" fill="#EBEBEB"/>
<path d="M93.8584 421.928C93.8657 421.789 93.8502 421.649 93.8124 421.515C91.7644 413.415 81.6314 408.387 81.6314 408.387L77.6114 408.708C75.3044 415.845 75.5944 420.216 75.9764 422.172C75.9924 422.233 76.0074 422.279 76.0234 422.325C81.9679 422.744 87.9384 422.611 93.8584 421.928V421.928Z" fill="white"/>
<path d="M76.0434 422.307C76.1154 422.618 76.2721 422.902 76.4962 423.129C76.7202 423.356 77.0028 423.516 77.3124 423.591C82.0194 424.585 89.5124 423.791 92.6564 423.377C92.9976 423.319 93.3068 423.14 93.5282 422.874C93.7495 422.608 93.8683 422.271 93.8634 421.925C87.9486 422.613 81.9822 422.741 76.0434 422.307V422.307Z" fill="#91B3FA"/>
<path d="M76.0274 402.713L77.7274 410.905C77.7741 411.188 77.9109 411.448 78.1175 411.646C78.324 411.844 78.5892 411.97 78.8734 412.005C79.7484 412.095 80.6311 412.08 81.5024 411.959C81.9399 411.874 82.3257 411.618 82.575 411.249C82.8244 410.879 82.9169 410.426 82.8324 409.988L81.6554 402.713H76.0274Z" fill="white"/>
<path d="M111.247 422.198C106.815 422.077 104.523 421.556 103.33 421.068C103.33 421.511 103.33 421.955 103.346 422.428C103.344 422.656 103.431 422.876 103.587 423.042C103.744 423.207 103.96 423.305 104.187 423.315L128.533 423.163C128.716 423.149 128.893 423.089 129.047 422.99C129.201 422.89 129.328 422.755 129.417 422.594C129.506 422.434 129.554 422.254 129.557 422.071C129.56 421.887 129.518 421.706 129.433 421.543C126.241 421.803 118.109 422.398 111.247 422.198Z" fill="#91B3FA"/>
<path d="M129.443 421.55L129.352 421.366C127.197 418.355 121.725 412.379 110.905 409.781L105.705 409.613C105.705 409.613 103.397 413.633 103.352 421.076C104.544 421.565 106.837 422.084 111.269 422.207C118.118 422.405 126.249 421.809 129.443 421.55Z" fill="white"/>
<path d="M104.502 402.003C104.578 402.385 105.663 408.203 106.076 410.47C106.115 410.719 106.235 410.948 106.417 411.122C106.6 411.296 106.834 411.406 107.084 411.433C108.278 411.52 109.479 411.427 110.645 411.158C110.98 411.054 111.269 410.839 111.464 410.548C111.658 410.256 111.747 409.907 111.715 409.558L111.134 400.342L104.502 402.003Z" fill="white"/>
<path d="M100.571 294.44C100.571 294.44 107.708 343.515 112.871 401.913C112.888 402.447 112.711 402.97 112.375 403.385C112.038 403.8 111.563 404.081 111.037 404.175C109.131 404.608 107.184 404.833 105.229 404.847C104.733 404.83 104.257 404.641 103.884 404.313C103.511 403.985 103.262 403.538 103.181 403.047C101.423 392.747 88.8914 337.497 85.6054 325.332C85.6054 325.332 81.8304 376.99 83.0374 403.796C83.0537 404.116 82.9473 404.43 82.7399 404.675C82.5326 404.919 82.2398 405.075 81.9214 405.111C80.3719 405.277 78.8088 405.272 77.2604 405.095C76.8838 405.06 76.5299 404.899 76.2555 404.639C75.9812 404.379 75.8022 404.034 75.7474 403.659C74.4934 394.947 67.2954 343.076 67.6014 305.708C67.6164 303.599 70.0774 286.283 70.0774 286.283L100.571 294.44Z" fill="#726ACE"/>
<path d="M103.334 211.916L104.297 237.592C106.841 238.475 109.433 239.209 112.061 239.792C113.605 234.84 116.997 228.742 119.761 224.218C109.553 220.627 103.334 211.916 103.334 211.916Z" fill="#FFB614"/>
<path d="M68.9944 297.27C68.635 297.141 68.3195 296.913 68.0842 296.612C67.8489 296.311 67.7033 295.95 67.6644 295.57C66.7164 286.355 62.1164 229.225 91.1394 205.719C91.1394 205.719 92.8054 201.363 106.484 212.077C120.163 222.791 112.841 234.008 109.57 249.49C105.612 268.228 98.6424 283.526 101.73 295.065C101.838 295.448 101.797 295.858 101.616 296.212C101.434 296.566 101.126 296.839 100.752 296.975C90.548 300.898 79.2699 301.003 68.9944 297.27V297.27Z" fill="#FFB614"/>
<path d="M102.464 188.603C102.448 189.413 90.8644 205.888 90.8644 205.888C90.8644 205.888 92.9424 209.988 102.877 213.316L111.451 195.679L102.464 188.603Z" fill="#FE9F9B"/>
<path d="M96.7374 244.956C96.6614 244.96 96.5862 244.938 96.5234 244.895C87.2614 238.644 82.9054 228.541 82.8604 228.435C82.8227 228.344 82.8226 228.241 82.8601 228.15C82.8975 228.058 82.9695 227.985 83.0604 227.946C83.1055 227.926 83.1542 227.915 83.2036 227.914C83.253 227.914 83.302 227.923 83.3477 227.942C83.3935 227.96 83.4349 227.988 83.4696 228.023C83.5042 228.058 83.5314 228.1 83.5494 228.146C83.5954 228.238 87.8594 238.146 96.9374 244.27C97.0178 244.327 97.0735 244.413 97.0934 244.509C97.1133 244.606 97.0958 244.706 97.0444 244.79C97.0107 244.841 96.965 244.882 96.9115 244.911C96.858 244.94 96.7982 244.956 96.7374 244.956V244.956Z" fill="#BE938A"/>
<path d="M110.519 230.958C110.456 230.957 110.395 230.942 110.339 230.913C110.283 230.884 110.235 230.842 110.198 230.79C110.168 230.744 107.34 226.343 101.945 216.698C101.301 215.377 100.393 214.201 99.2791 213.242C98.1649 212.283 96.8669 211.561 95.4644 211.12C92.5464 210.466 89.4907 210.873 86.8454 212.267C86.7583 212.318 86.6545 212.332 86.557 212.306C86.4595 212.281 86.3762 212.217 86.3254 212.13C86.2746 212.043 86.2605 211.939 86.2862 211.842C86.3119 211.744 86.3753 211.661 86.4624 211.61C89.2745 210.102 92.5387 209.668 95.6474 210.387C97.1463 210.857 98.5341 211.626 99.7269 212.648C100.92 213.67 101.893 214.923 102.586 216.332C107.966 225.96 110.778 230.347 110.809 230.393C110.861 230.477 110.879 230.578 110.859 230.675C110.84 230.771 110.783 230.857 110.702 230.913C110.645 230.939 110.583 230.954 110.519 230.958V230.958Z" fill="#BE938A"/>
<path d="M111.595 179.166C111.595 179.166 115.721 188.642 115.995 193.608C116.269 198.574 117.34 201.815 111.595 202.808C105.848 203.817 101.003 200.943 98.3744 195.991C98.3744 195.991 94.2634 188.364 95.1804 185.231C96.0974 182.115 111.595 179.166 111.595 179.166Z" fill="#FEB1AF"/>
<path d="M100.334 192.437L100.655 192.3C100.754 192.257 100.843 192.194 100.917 192.115C100.991 192.036 101.047 191.942 101.083 191.841C101.119 191.739 101.134 191.63 101.126 191.523C101.118 191.415 101.088 191.31 101.038 191.214C100.228 189.64 98.6544 186.064 100.686 185.223C103.314 184.138 113.738 182.013 115.986 178.315C116.441 177.524 116.733 176.651 116.847 175.745C116.96 174.84 116.893 173.921 116.648 173.043C116.403 172.164 115.987 171.342 115.422 170.626C114.857 169.91 114.155 169.313 113.357 168.87C113.266 168.827 113.161 168.82 113.064 168.852C112.968 168.883 112.887 168.949 112.837 169.038L112.592 169.496C112.555 169.564 112.499 169.62 112.431 169.656C112.362 169.692 112.284 169.707 112.207 169.698C112.13 169.69 112.057 169.659 111.998 169.61C111.938 169.56 111.895 169.494 111.873 169.419C111.852 169.348 111.811 169.285 111.755 169.237C111.699 169.189 111.63 169.157 111.557 169.146C111.484 169.135 111.409 169.144 111.341 169.174C111.273 169.203 111.215 169.251 111.173 169.312C110.485 170.412 108.621 172.212 103.623 173.133C96.5324 174.448 91.8404 177.321 91.7174 182.211C91.7165 182.282 91.6964 182.351 91.6594 182.412C91.6223 182.472 91.5697 182.521 91.507 182.554C91.4443 182.587 91.3739 182.602 91.3032 182.598C91.2325 182.595 91.1642 182.572 91.1054 182.532C90.5854 182.211 89.7454 182.058 88.6294 183.005C86.6884 184.64 87.4834 188.889 91.7474 192.389C91.7946 192.427 91.8325 192.475 91.858 192.53C91.8836 192.585 91.8961 192.645 91.8947 192.706C91.8932 192.766 91.8778 192.826 91.8497 192.88C91.8215 192.933 91.7814 192.98 91.7324 193.015C90.9524 193.515 89.8064 194.715 92.8014 196.315C94.697 197.444 96.9078 197.927 99.1014 197.691C99.1538 197.682 99.2038 197.662 99.2484 197.633C99.293 197.603 99.3313 197.566 99.3611 197.522C99.3909 197.477 99.4116 197.428 99.422 197.375C99.4323 197.323 99.4321 197.269 99.4214 197.217L98.4744 192.907C98.4616 192.85 98.4619 192.791 98.4752 192.734C98.4884 192.677 98.5144 192.624 98.5511 192.578C98.5878 192.533 98.6343 192.496 98.6872 192.471C98.7401 192.446 98.7979 192.433 98.8564 192.433L100.334 192.437Z" fill="#404040"/>
<path d="M100.511 193.353C100.511 193.353 98.9374 187.302 96.2164 188.997C93.4954 190.692 97.6224 195.783 99.8074 196.013L100.511 193.353Z" fill="#FEA6A3"/>
<path d="M153.942 209.984C153.942 209.984 151.879 206.316 152.002 204.543C152.125 202.77 151.023 200.143 152.202 200.343C153.381 200.543 153.624 200.373 153.944 202.513C154.264 204.653 157.995 213.973 153.942 209.984Z" fill="white"/>
<path d="M154.32 204.166L154.273 211.487C140.273 226.602 128.949 227.487 119.763 224.234C116.982 228.758 113.588 234.841 112.063 239.808C149.432 248.046 158.234 213.689 158.234 213.689C163.293 211.595 164.317 210.372 164.104 208.996L154.32 204.166Z" fill="#FE9F9B"/>
<path d="M165.079 196.894C163.887 196.405 161.549 191.957 161.106 193.425C160.663 194.893 161.29 196.894 161.106 197.525C160.922 198.156 158.006 205.32 158.584 206.909C158.997 208.055 161.32 207.887 161.671 209.767C161.714 210.057 161.856 210.323 162.074 210.518C162.292 210.713 162.572 210.826 162.864 210.836C163.158 210.828 163.438 210.716 163.657 210.52C163.875 210.325 164.016 210.058 164.056 209.767C164.101 209.516 166.271 197.381 165.079 196.894Z" fill="white"/>
<path d="M126.932 181.63C122.843 189.715 121.787 198.998 123.957 207.794C126.127 216.591 131.378 224.318 138.759 229.573C146.139 234.828 155.159 237.264 164.181 236.437C173.203 235.61 181.63 231.576 187.932 225.066L252.78 257.849C253.31 258.12 253.899 258.25 254.493 258.229C255.087 258.208 255.665 258.035 256.173 257.727L262.516 253.952C262.624 253.889 262.727 253.817 262.822 253.737C262.851 253.721 262.877 253.701 262.898 253.676C262.975 253.616 263.036 253.555 263.113 253.493C263.143 253.477 263.159 253.446 263.189 253.432C263.279 253.354 263.361 253.266 263.434 253.172C263.835 252.685 264.098 252.098 264.195 251.475C264.292 250.851 264.22 250.212 263.985 249.626L258.834 236.711C258.516 235.916 257.918 235.263 257.153 234.877L250.653 231.591L248.941 234.984L243.363 232.157L245.075 228.764L239.848 226.12L238.274 229.253L231.488 225.83L233.062 222.696L230.541 221.413L229.731 223.013L224.045 220.139L224.855 218.539L220.438 216.307L218.727 219.7L215.563 218.11L217.275 214.718L214.539 213.327L212.827 216.719L207.355 213.953L209.067 210.56L201.367 206.66L198.067 204.994C199.572 196.062 197.824 186.887 193.142 179.133C188.46 171.38 181.153 165.562 172.548 162.735C163.943 159.907 154.609 160.259 146.241 163.725C137.873 167.191 131.024 173.542 126.938 181.626L126.932 181.63ZM149.032 184.213C150.385 184.898 151.504 185.968 152.249 187.289C152.993 188.61 153.329 190.121 153.214 191.633C153.099 193.145 152.539 194.588 151.603 195.781C150.668 196.975 149.4 197.863 147.959 198.336C146.518 198.808 144.97 198.843 143.51 198.435C142.05 198.027 140.743 197.196 139.756 196.046C138.768 194.895 138.144 193.478 137.962 191.973C137.779 190.468 138.048 188.943 138.732 187.59C139.651 185.777 141.252 184.403 143.184 183.77C145.115 183.137 147.219 183.297 149.032 184.214V184.213Z" fill="#6F6D6D"/>
<path d="M179.507 193.08L210.258 208.624L208.546 212.016L214.017 214.783L215.729 211.39L218.465 212.781L216.753 216.174L219.917 217.763L221.628 214.371L226.045 216.602L225.235 218.207L230.92 221.08L231.731 219.48L234.252 220.764L232.678 223.897L239.464 227.32L241.038 224.187L246.265 226.831L244.553 230.223L250.131 233.05L251.843 229.658L258.343 232.943C259.108 233.33 259.706 233.982 260.024 234.777L265.175 247.692C265.485 248.472 265.507 249.337 265.238 250.131C264.97 250.926 264.427 251.6 263.708 252.032L257.365 255.807C256.855 256.108 256.277 256.277 255.684 256.298C255.092 256.319 254.504 256.192 253.972 255.929L175.686 216.342L179.507 193.08Z" fill="#D3D3D3"/>
<path d="M144.811 230.565C151.495 233.945 159.03 235.267 166.465 234.364C173.9 233.461 180.9 230.373 186.58 225.492C192.259 220.61 196.364 214.154 198.375 206.94C200.386 199.725 200.212 192.077 197.875 184.961C195.539 177.846 191.145 171.583 185.249 166.965C179.353 162.346 172.22 159.58 164.752 159.016C157.284 158.451 149.817 160.114 143.294 163.794C136.771 167.474 131.486 173.006 128.106 179.689C123.577 188.651 122.793 199.045 125.925 208.586C129.058 218.126 135.851 226.032 144.811 230.565V230.565ZM143.282 195.949C141.929 195.265 140.81 194.194 140.065 192.874C139.32 191.553 138.984 190.041 139.099 188.529C139.214 187.017 139.774 185.573 140.71 184.38C141.645 183.186 142.913 182.297 144.354 181.824C145.795 181.352 147.343 181.317 148.804 181.725C150.264 182.133 151.571 182.964 152.559 184.114C153.547 185.265 154.171 186.682 154.353 188.188C154.536 189.693 154.267 191.218 153.582 192.571C152.664 194.384 151.063 195.758 149.131 196.391C147.2 197.024 145.096 196.865 143.282 195.948V195.949Z" fill="white"/>
<path d="M189.102 223.118L253.95 255.901C254.48 256.172 255.069 256.302 255.663 256.281C256.257 256.26 256.835 256.087 257.343 255.779L263.686 252.004C264.144 251.733 264.534 251.36 264.825 250.915C265.116 250.47 265.302 249.964 265.367 249.436C259.452 243.036 203.267 218.502 201.176 213.443C200.427 211.643 200.305 208.919 202.537 204.701L199.237 203.035C200.726 194.113 198.968 184.953 194.281 177.216C189.595 169.479 182.291 163.677 173.694 160.864C165.097 158.05 155.777 158.411 147.423 161.88C139.069 165.35 132.236 171.698 128.161 179.774C124.087 187.85 123.042 197.119 125.215 205.899C127.389 214.68 132.637 222.391 140.009 227.633C147.38 232.876 156.386 235.303 165.394 234.475C174.401 233.646 182.814 229.617 189.105 223.118H189.102ZM150.19 182.266C151.543 182.951 152.662 184.021 153.407 185.342C154.151 186.662 154.487 188.174 154.372 189.686C154.258 191.197 153.697 192.641 152.762 193.834C151.827 195.027 150.559 195.916 149.118 196.389C147.678 196.861 146.129 196.896 144.669 196.488C143.209 196.081 141.902 195.249 140.915 194.099C139.927 192.949 139.302 191.532 139.12 190.027C138.938 188.522 139.206 186.997 139.89 185.644C140.809 183.831 142.41 182.457 144.341 181.824C146.273 181.19 148.376 181.349 150.19 182.266V182.266Z" fill="#ACACAC"/>
<path d="M148.163 223.927C153.536 226.643 159.594 227.705 165.57 226.978C171.547 226.251 177.173 223.768 181.739 219.844C186.304 215.919 189.603 210.729 191.219 204.929C192.834 199.13 192.694 192.981 190.815 187.262C188.937 181.542 185.404 176.508 180.664 172.796C175.924 169.083 170.19 166.86 164.187 166.407C158.184 165.954 152.181 167.291 146.937 170.249C141.694 173.208 137.446 177.654 134.729 183.027C132.925 186.595 131.842 190.483 131.541 194.469C131.24 198.455 131.727 202.462 132.974 206.26C134.222 210.058 136.205 213.573 138.811 216.604C141.418 219.636 144.595 222.124 148.163 223.927V223.927ZM143.288 195.943C141.935 195.259 140.816 194.188 140.071 192.868C139.326 191.547 138.99 190.035 139.105 188.523C139.22 187.011 139.78 185.567 140.715 184.374C141.651 183.18 142.919 182.291 144.36 181.818C145.801 181.346 147.349 181.311 148.81 181.719C150.27 182.127 151.577 182.958 152.565 184.108C153.553 185.259 154.177 186.676 154.359 188.182C154.542 189.687 154.273 191.212 153.588 192.565C152.669 194.378 151.069 195.752 149.137 196.385C147.206 197.018 145.102 196.859 143.288 195.942V195.943Z" fill="#D3D3D3"/>
<path d="M96.7374 244.952C96.7374 244.952 132.393 256.889 152.354 241.697C152.963 241.225 153.663 240.884 154.41 240.695C155.156 240.505 155.934 240.472 156.694 240.597L164.321 241.835C165.863 242.084 167.441 241.734 168.731 240.855C170.022 239.977 170.927 238.637 171.26 237.112C171.716 235.318 171.779 233.447 171.444 231.626L157.062 230.755L157.475 228.89C157.475 228.89 151.117 230.449 150.994 235.415C150.994 235.415 136.078 245.181 108.872 230.02C108.826 230.039 98.2354 238.338 96.7374 244.952Z" fill="#FEB6B5"/>
<g opacity="0.3">
<path opacity="0.3" d="M372.18 66.1802C371.983 66.173 371.79 66.1269 371.611 66.0444C371.432 65.9619 371.271 65.8448 371.137 65.6997C371.004 65.5546 370.9 65.3846 370.833 65.1993C370.765 65.014 370.735 64.8172 370.744 64.6202C370.805 63.0002 370.805 61.3652 370.728 59.7452C370.713 59.3519 370.851 58.968 371.114 58.6744C371.376 58.3809 371.742 58.2005 372.134 58.1712H372.164C372.562 58.1578 372.95 58.3006 373.244 58.5691C373.538 58.8377 373.716 59.2106 373.738 59.6082C373.815 61.3192 373.815 63.0462 373.754 64.7432C373.741 65.1147 373.589 65.4679 373.329 65.7336C373.069 65.9993 372.72 66.1586 372.348 66.1802H372.18ZM369.846 51.8632C369.556 50.2732 369.189 48.6692 368.761 47.1102C368.67 46.7306 368.73 46.3303 368.928 45.994C369.127 45.6577 369.448 45.4117 369.825 45.3079C370.201 45.204 370.603 45.2505 370.946 45.4376C371.288 45.6246 371.545 45.9375 371.661 46.3102C372.104 47.9452 372.486 49.6272 372.791 51.3102C372.862 51.7031 372.774 52.1078 372.549 52.4369C372.323 52.7659 371.976 52.9927 371.584 53.0682C371.524 53.0813 371.462 53.0867 371.4 53.0842C371.036 53.1086 370.676 52.9974 370.389 52.7719C370.102 52.5465 369.909 52.2228 369.846 51.8632ZM366.162 39.6512C365.52 38.1692 364.818 36.6862 364.054 35.2642C363.961 35.0907 363.903 34.9005 363.883 34.7044C363.863 34.5084 363.882 34.3104 363.939 34.1217C363.996 33.933 364.089 33.7573 364.214 33.6047C364.338 33.4521 364.492 33.3255 364.665 33.2322C364.839 33.1389 365.029 33.0807 365.225 33.0609C365.421 33.0411 365.619 33.0601 365.808 33.1169C365.997 33.1736 366.172 33.267 366.325 33.3916C366.478 33.5162 366.604 33.6697 366.697 33.8432C367.507 35.3432 368.256 36.8992 368.929 38.4742C369.085 38.841 369.089 39.2543 368.94 39.6238C368.791 39.9932 368.502 40.2886 368.135 40.4452C367.977 40.5139 367.808 40.5551 367.635 40.5672C367.325 40.5849 367.016 40.5061 366.751 40.3416C366.487 40.1771 366.28 39.9349 366.158 39.6482L366.162 39.6512ZM359.819 28.5512C358.857 27.2372 357.848 25.9682 356.778 24.7452C356.525 24.4422 356.401 24.0518 356.432 23.6581C356.464 23.2643 356.649 22.8988 356.948 22.6402C357.247 22.3817 357.635 22.2509 358.029 22.2759C358.423 22.301 358.792 22.4799 359.055 22.7742C360.17 24.0582 361.255 25.4032 362.264 26.7742C362.498 27.0977 362.595 27.4998 362.535 27.894C362.475 28.2883 362.263 28.6435 361.944 28.8832C361.783 29.0016 361.6 29.0869 361.406 29.1341C361.211 29.1813 361.009 29.1896 360.812 29.1583C360.614 29.1271 360.425 29.057 360.254 28.9521C360.084 28.8472 359.936 28.7096 359.819 28.5472V28.5512ZM351.184 19.1362C349.961 18.0812 348.677 17.0582 347.378 16.0942C347.064 15.8541 346.857 15.5001 346.801 15.1085C346.745 14.717 346.845 14.3191 347.079 14.0006C347.314 13.682 347.664 13.4683 348.055 13.4054C348.445 13.3425 348.845 13.4354 349.167 13.6642C350.542 14.6732 351.887 15.7422 353.167 16.8582C353.393 17.0542 353.555 17.3126 353.633 17.6007C353.711 17.8888 353.703 18.1936 353.608 18.4767C353.513 18.7598 353.336 19.0083 353.1 19.1909C352.863 19.3734 352.578 19.4818 352.28 19.5022C352.082 19.5192 351.882 19.4956 351.694 19.4331C351.505 19.3705 351.33 19.2702 351.181 19.1382L351.184 19.1362ZM340.669 11.8762C339.247 11.1122 337.769 10.3932 336.282 9.75122C336.094 9.67827 335.922 9.56802 335.778 9.42708C335.633 9.28614 335.518 9.11742 335.44 8.93105C335.362 8.74467 335.323 8.54447 335.324 8.34247C335.325 8.14047 335.368 7.94082 335.448 7.7555C335.528 7.57018 335.645 7.40301 335.792 7.26401C335.939 7.12501 336.112 7.01705 336.301 6.94661C336.49 6.87617 336.692 6.8447 336.894 6.85408C337.096 6.86347 337.293 6.91352 337.475 7.00122C339.034 7.67322 340.592 8.42223 342.09 9.23223C342.265 9.32481 342.419 9.45103 342.544 9.6036C342.67 9.75616 342.763 9.93205 342.82 10.1211C342.877 10.3101 342.896 10.5086 342.876 10.705C342.856 10.9014 342.797 11.0918 342.702 11.2652C342.611 11.4407 342.485 11.596 342.333 11.7222C342.18 11.8483 342.004 11.9427 341.815 11.9997C341.625 12.0567 341.426 12.0752 341.23 12.0542C341.033 12.0332 340.843 11.973 340.669 11.8772V11.8762ZM284.807 11.1762C284.714 11.0018 284.657 10.8106 284.638 10.6138C284.619 10.4171 284.64 10.2185 284.698 10.0296C284.756 9.84065 284.851 9.66507 284.977 9.51296C285.103 9.36085 285.258 9.23519 285.433 9.14322C286.933 8.34922 288.49 7.59923 290.064 6.92723C290.246 6.85002 290.441 6.80932 290.638 6.80748C290.836 6.80565 291.031 6.8427 291.215 6.91652C291.398 6.99035 291.564 7.09949 291.705 7.23774C291.846 7.37598 291.958 7.54061 292.035 7.72223C292.113 7.90385 292.153 8.09889 292.155 8.29624C292.157 8.49358 292.12 8.68935 292.046 8.87238C291.972 9.0554 291.863 9.22209 291.725 9.36293C291.587 9.50378 291.422 9.61601 291.24 9.69323C289.743 10.3352 288.276 11.0382 286.84 11.8022C286.654 11.9089 286.444 11.9667 286.229 11.9702C285.939 11.9964 285.648 11.9346 285.394 11.7928C285.14 11.6509 284.934 11.4357 284.804 11.1752L284.807 11.1762ZM328.823 7.14122C327.264 6.71422 325.66 6.34723 324.07 6.05623C323.874 6.02222 323.686 5.9495 323.517 5.84227C323.349 5.73505 323.203 5.59546 323.089 5.4316C322.975 5.26774 322.895 5.08286 322.853 4.88771C322.811 4.69256 322.808 4.49102 322.845 4.29476C322.881 4.09849 322.956 3.91141 323.066 3.74439C323.175 3.57736 323.316 3.43371 323.482 3.32175C323.647 3.20979 323.833 3.13177 324.028 3.0922C324.224 3.05262 324.426 3.05229 324.621 3.09122C326.302 3.39722 327.983 3.79123 329.621 4.23723C330.005 4.34523 330.33 4.59966 330.528 4.94561C330.725 5.29155 330.778 5.70124 330.676 6.08623C330.596 6.3903 330.42 6.6608 330.176 6.85855C329.931 7.05631 329.63 7.17107 329.315 7.18622C329.149 7.20117 328.982 7.18559 328.821 7.14023L328.823 7.14122ZM296.866 6.04123C296.764 5.65622 296.817 5.24627 297.014 4.9002C297.212 4.55412 297.538 4.29977 297.921 4.19223C299.571 3.74923 301.252 3.36723 302.933 3.06223C303.131 3.01741 303.335 3.01305 303.535 3.0494C303.734 3.08574 303.924 3.16203 304.093 3.2737C304.261 3.38537 304.406 3.53008 304.517 3.69912C304.629 3.86815 304.705 4.05803 304.741 4.25728C304.777 4.45653 304.773 4.66103 304.728 4.85846C304.683 5.0559 304.598 5.24217 304.479 5.40605C304.36 5.56994 304.21 5.70805 304.036 5.81206C303.862 5.91607 303.669 5.98382 303.468 6.01123C301.878 6.30123 300.274 6.65323 298.715 7.08023C298.616 7.11101 298.513 7.12684 298.409 7.12723C298.064 7.15997 297.719 7.06845 297.436 6.86916C297.152 6.66987 296.949 6.3759 296.863 6.04023L296.866 6.04123ZM316.215 5.15422C314.595 5.07822 312.96 5.07822 311.34 5.15422C310.942 5.16794 310.555 5.02536 310.261 4.75699C309.967 4.48862 309.789 4.11576 309.766 3.71822C309.75 3.32608 309.888 2.94322 310.151 2.65177C310.414 2.36031 310.781 2.18349 311.172 2.15923H311.202C312.902 2.08223 314.625 2.08223 316.338 2.15923C316.723 2.17723 317.086 2.34175 317.354 2.61905C317.621 2.89636 317.772 3.26543 317.776 3.65056C317.78 4.03569 317.636 4.40768 317.374 4.69025C317.113 4.97282 316.753 5.14457 316.368 5.17023C316.318 5.15571 316.265 5.14996 316.212 5.15323L316.215 5.15422Z" fill="#4B4B4B"/>
<path opacity="0.3" d="M277.394 17.7722C277.701 17.7552 277.995 17.643 278.235 17.4512C278.847 16.9622 279.473 16.4882 280.1 16.0292C280.424 15.7935 280.641 15.4393 280.704 15.0441C280.767 14.6489 280.67 14.2448 280.436 13.9202C280.32 13.7598 280.172 13.624 280.003 13.5209C279.833 13.4178 279.645 13.3493 279.449 13.3195C279.253 13.2896 279.053 13.299 278.86 13.347C278.668 13.395 278.487 13.4807 278.327 13.5992C277.67 14.0882 276.997 14.5922 276.371 15.0992C276.12 15.2973 275.939 15.5704 275.854 15.8789C275.769 16.1873 275.785 16.5148 275.899 16.8135C276.013 17.1123 276.22 17.3667 276.49 17.5395C276.759 17.7124 277.076 17.7946 277.395 17.7742L277.394 17.7722Z" fill="#4B4B4B"/>
</g>
<g opacity="0.3">
<path opacity="0.3" d="M255.441 58.0622C255.799 58.0373 256.135 57.8871 256.393 57.6381C256.65 57.3891 256.811 57.0573 256.847 56.7012C256.924 55.9212 257.015 55.1422 257.122 54.3782C257.15 54.1826 257.138 53.9835 257.088 53.7923C257.038 53.6012 256.951 53.4217 256.832 53.2642C256.713 53.1066 256.564 52.9741 256.393 52.8742C256.223 52.7742 256.035 52.7088 255.839 52.6817C255.643 52.6546 255.444 52.6663 255.253 52.7161C255.062 52.7659 254.882 52.8529 254.725 52.9721C254.567 53.0913 254.435 53.2404 254.335 53.4107C254.235 53.5811 254.17 53.7696 254.142 53.9652C254.034 54.7752 253.928 55.6002 253.852 56.4102C253.817 56.8073 253.94 57.2023 254.195 57.5088C254.449 57.8153 254.815 58.0082 255.212 58.0452C255.288 58.0586 255.365 58.0643 255.441 58.0622Z" fill="#4B4B4B"/>
<path opacity="0.3" d="M314.483 122.295C314.089 122.293 313.712 122.137 313.432 121.859C313.152 121.582 312.992 121.206 312.986 120.812C312.98 120.418 313.128 120.038 313.4 119.752C313.671 119.466 314.044 119.298 314.437 119.284C316.027 119.269 317.631 119.176 319.221 119.008C319.418 118.988 319.617 119.007 319.807 119.064C319.997 119.121 320.173 119.214 320.327 119.339C320.48 119.464 320.608 119.619 320.702 119.793C320.796 119.967 320.854 120.158 320.874 120.355C320.895 120.552 320.876 120.751 320.819 120.941C320.762 121.131 320.668 121.307 320.543 121.461C320.418 121.614 320.264 121.742 320.09 121.835C319.916 121.929 319.724 121.988 319.527 122.008C318.839 122.069 318.136 122.13 317.448 122.176C316.455 122.234 315.462 122.276 314.483 122.295ZM325.793 119.544C325.747 119.353 325.739 119.154 325.77 118.959C325.801 118.764 325.87 118.578 325.974 118.41C326.078 118.243 326.214 118.098 326.375 117.983C326.535 117.869 326.717 117.788 326.909 117.744C328.468 117.377 330.009 116.934 331.524 116.444C331.712 116.383 331.91 116.359 332.107 116.375C332.304 116.39 332.495 116.444 332.671 116.533C332.847 116.623 333.004 116.746 333.132 116.896C333.261 117.046 333.358 117.22 333.419 117.407C333.481 117.595 333.504 117.793 333.489 117.99C333.474 118.186 333.42 118.378 333.33 118.554C333.241 118.73 333.118 118.887 332.968 119.015C332.818 119.143 332.644 119.241 332.456 119.302C330.867 119.822 329.232 120.28 327.596 120.678C327.511 120.695 327.424 120.705 327.336 120.708C326.983 120.728 326.634 120.623 326.351 120.409C326.069 120.196 325.871 119.89 325.793 119.544V119.544ZM306.293 121.852C304.627 121.652 302.961 121.363 301.311 121.027C300.925 120.939 300.589 120.703 300.375 120.369C300.162 120.036 300.088 119.631 300.17 119.244C300.253 118.856 300.484 118.516 300.815 118.298C301.145 118.08 301.549 118.001 301.937 118.077C303.496 118.398 305.086 118.677 306.66 118.877C307.056 118.929 307.416 119.134 307.662 119.449C307.907 119.763 308.02 120.162 307.974 120.558C307.932 120.905 307.77 121.226 307.516 121.466C307.262 121.706 306.932 121.849 306.583 121.872C306.486 121.874 306.388 121.867 306.291 121.852H306.293ZM338.052 115.525C337.965 115.348 337.914 115.155 337.901 114.957C337.888 114.76 337.914 114.561 337.978 114.374C338.042 114.187 338.142 114.014 338.273 113.865C338.404 113.717 338.563 113.595 338.74 113.508C340.177 112.808 341.583 112.041 342.959 111.231C343.302 111.027 343.712 110.966 344.099 111.064C344.485 111.161 344.818 111.409 345.022 111.751C345.227 112.094 345.287 112.504 345.19 112.89C345.092 113.277 344.845 113.61 344.502 113.814C343.066 114.67 341.568 115.48 340.055 116.214C339.879 116.302 339.687 116.354 339.49 116.367C339.194 116.384 338.899 116.313 338.643 116.163C338.387 116.013 338.181 115.791 338.05 115.524L338.052 115.525ZM293.424 118.776C291.85 118.211 290.276 117.569 288.748 116.866C288.569 116.785 288.407 116.669 288.272 116.525C288.137 116.382 288.032 116.213 287.962 116.028C287.893 115.844 287.86 115.647 287.866 115.45C287.873 115.253 287.918 115.059 287.999 114.88C288.08 114.7 288.196 114.538 288.34 114.403C288.484 114.268 288.652 114.163 288.837 114.094C289.021 114.024 289.218 113.991 289.415 113.998C289.612 114.004 289.806 114.049 289.985 114.13C291.438 114.788 292.935 115.398 294.417 115.93C294.742 116.049 295.016 116.275 295.193 116.571C295.371 116.867 295.441 117.215 295.393 117.557C295.344 117.899 295.18 118.214 294.927 118.449C294.675 118.684 294.349 118.825 294.004 118.849C293.808 118.876 293.608 118.851 293.424 118.776V118.776ZM281.547 112.976C280.126 112.076 278.735 111.111 277.406 110.103C277.249 109.984 277.116 109.835 277.016 109.664C276.916 109.493 276.851 109.305 276.824 109.109C276.797 108.913 276.809 108.714 276.859 108.523C276.909 108.331 276.996 108.152 277.115 107.994C277.235 107.837 277.384 107.704 277.555 107.604C277.725 107.504 277.914 107.439 278.11 107.412C278.305 107.385 278.505 107.397 278.696 107.447C278.887 107.497 279.067 107.584 279.224 107.703C280.493 108.666 281.824 109.583 283.168 110.439C283.336 110.544 283.481 110.682 283.596 110.844C283.71 111.006 283.79 111.189 283.833 111.382C283.876 111.576 283.879 111.776 283.844 111.97C283.808 112.165 283.734 112.351 283.626 112.517C283.499 112.718 283.325 112.886 283.121 113.007C282.917 113.129 282.687 113.201 282.449 113.217C282.131 113.235 281.815 113.151 281.547 112.976V112.976ZM271.216 104.723C270.024 103.531 268.877 102.293 267.793 101.009C267.537 100.705 267.412 100.311 267.445 99.9147C267.477 99.5182 267.666 99.1506 267.968 98.8924C268.271 98.6341 268.664 98.5061 269.061 98.5363C269.457 98.5664 269.826 98.7522 270.086 99.0532C271.11 100.26 272.21 101.453 273.341 102.583C273.481 102.723 273.592 102.888 273.668 103.07C273.743 103.253 273.782 103.448 273.782 103.645C273.782 103.843 273.743 104.038 273.668 104.22C273.592 104.402 273.481 104.568 273.341 104.707C273.084 104.966 272.742 105.123 272.378 105.151C272.165 105.169 271.95 105.139 271.749 105.065C271.549 104.99 271.367 104.872 271.216 104.719V104.723ZM262.932 94.4072C262.032 92.9852 261.175 91.5182 260.411 90.0362C260.32 89.8606 260.264 89.6687 260.247 89.4714C260.23 89.2742 260.252 89.0755 260.311 88.8868C260.371 88.698 260.467 88.5228 260.595 88.3712C260.722 88.2196 260.878 88.0946 261.053 88.0032C261.229 87.9119 261.421 87.856 261.618 87.8389C261.815 87.8217 262.014 87.8436 262.203 87.9032C262.392 87.9628 262.567 88.059 262.718 88.1863C262.87 88.3136 262.995 88.4696 263.086 88.6452C263.819 90.0512 264.629 91.4572 265.486 92.8022C265.699 93.1388 265.77 93.5459 265.684 93.9346C265.597 94.3233 265.36 94.6618 265.024 94.8762C264.813 95.0088 264.573 95.0878 264.324 95.1062C264.051 95.119 263.78 95.0609 263.536 94.9377C263.291 94.8146 263.083 94.6305 262.931 94.4032L262.932 94.4072ZM257.11 82.5162C256.544 80.9422 256.04 79.3222 255.61 77.7022C255.521 77.3217 255.583 76.9212 255.785 76.5861C255.986 76.251 256.31 76.0077 256.688 75.9081C257.066 75.8085 257.468 75.8604 257.809 76.0529C258.149 76.2453 258.401 76.5629 258.51 76.9382C258.923 78.4822 259.397 80.0252 259.932 81.5232C260 81.7098 260.03 81.9079 260.02 82.1061C260.01 82.3043 259.961 82.4985 259.876 82.6776C259.791 82.8568 259.671 83.0172 259.523 83.1496C259.375 83.2821 259.203 83.3839 259.015 83.4492C258.881 83.4941 258.743 83.5249 258.602 83.5412C258.278 83.5434 257.961 83.4459 257.694 83.2618C257.427 83.0778 257.223 82.8161 257.109 82.5122L257.11 82.5162ZM254.053 69.6482C253.9 68.4252 253.778 67.1872 253.701 65.9482C253.671 65.5052 253.655 65.0612 253.624 64.6182C253.614 64.421 253.643 64.2237 253.711 64.0379C253.778 63.8522 253.881 63.6817 254.015 63.5365C254.149 63.3913 254.31 63.2742 254.49 63.1923C254.67 63.1103 254.864 63.0651 255.061 63.0592C255.458 63.0432 255.846 63.1855 256.138 63.4547C256.43 63.7239 256.604 64.0982 256.62 64.4952C256.635 64.9232 256.666 65.3362 256.681 65.7632C256.758 66.9242 256.865 68.1172 257.017 69.2792C257.066 69.6742 256.957 70.0723 256.713 70.3871C256.47 70.7019 256.112 70.9079 255.717 70.9602C255.686 70.958 255.655 70.9635 255.626 70.9762C255.245 70.9927 254.871 70.8648 254.579 70.6179C254.287 70.3711 254.099 70.0234 254.052 69.6442L254.053 69.6482Z" fill="#4B4B4B"/>
<path opacity="0.3" d="M350.431 109.429C350.739 109.415 351.033 109.303 351.271 109.108C351.913 108.608 352.539 108.069 353.171 107.519C353.471 107.256 353.654 106.884 353.68 106.485C353.706 106.087 353.572 105.695 353.309 105.395C353.045 105.095 352.674 104.912 352.275 104.886C351.877 104.86 351.484 104.994 351.184 105.257C350.584 105.777 349.991 106.281 349.384 106.757C349.136 106.959 348.958 107.235 348.876 107.545C348.795 107.855 348.815 108.183 348.932 108.481C349.05 108.779 349.259 109.032 349.53 109.203C349.801 109.374 350.12 109.454 350.439 109.432L350.431 109.429Z" fill="#4B4B4B"/>
</g>
<path d="M353.273 83.7972C353.355 83.6781 353.399 83.5369 353.399 83.3922C353.399 83.2476 353.355 83.1063 353.273 82.9872L348.305 76.0022C349.859 72.2565 350.783 68.28 351.041 64.2332L358.561 60.1522C358.69 60.0834 358.794 59.9752 358.858 59.8434C358.921 59.7116 358.94 59.563 358.913 59.4192L357.232 49.2862C357.209 49.1405 357.14 49.0059 357.036 48.9015C356.932 48.7972 356.797 48.7285 356.651 48.7052L348.214 47.2842C346.654 43.5426 344.496 40.0789 341.826 37.0282L344.271 28.8212C344.316 28.6805 344.314 28.5295 344.268 28.3896C344.221 28.2497 344.131 28.1281 344.011 28.0422L335.666 22.0662C335.547 21.9838 335.406 21.9396 335.261 21.9396C335.117 21.9396 334.975 21.9838 334.856 22.0662L327.871 27.0172C324.126 25.4646 320.15 24.5402 316.103 24.2812L312.023 16.7672C311.955 16.6381 311.847 16.5342 311.715 16.4709C311.583 16.4076 311.434 16.3881 311.29 16.4152L301.157 18.0962C301.012 18.1195 300.877 18.1882 300.773 18.2925C300.668 18.3969 300.6 18.5315 300.576 18.6772L299.154 27.1142C295.413 28.6748 291.949 30.8321 288.898 33.5022L280.692 31.0572C280.552 31.0136 280.401 31.0151 280.261 31.0615C280.121 31.108 279.999 31.197 279.912 31.3162L273.936 39.6612C273.854 39.7804 273.81 39.9216 273.81 40.0662C273.81 40.2109 273.854 40.3521 273.936 40.4712L278.888 47.4562C277.335 51.2016 276.411 55.1777 276.152 59.2242L268.632 63.3052C268.503 63.3742 268.399 63.4826 268.336 63.6146C268.273 63.7466 268.253 63.8953 268.28 64.0392L269.963 74.1672C269.987 74.313 270.055 74.4476 270.16 74.5519C270.264 74.6563 270.399 74.725 270.544 74.7482L278.981 76.1702C280.542 79.9117 282.699 83.3751 285.369 86.4252L282.924 94.6322C282.881 94.7731 282.882 94.9241 282.929 95.0641C282.976 95.204 283.065 95.3258 283.184 95.4122L291.528 101.388C291.648 101.47 291.789 101.514 291.933 101.514C292.078 101.514 292.219 101.47 292.338 101.388L299.323 96.4362C303.069 97.9896 307.046 98.914 311.092 99.1722L315.173 106.692C315.242 106.821 315.35 106.925 315.482 106.988C315.614 107.052 315.763 107.071 315.906 107.044L326.039 105.363C326.185 105.34 326.32 105.271 326.424 105.167C326.528 105.063 326.597 104.928 326.62 104.782L328.042 96.3452C331.784 94.7843 335.247 92.627 338.297 89.9572L346.504 92.4022C346.645 92.4459 346.796 92.4444 346.936 92.3977C347.076 92.3511 347.198 92.2617 347.284 92.1422L353.273 83.7972Z" fill="#C5C4C4"/>
<path d="M312.77 72.0122C310.044 71.7815 307.52 70.479 305.752 68.3904C303.985 66.3018 303.117 63.5974 303.34 60.8702C303.573 58.1445 304.876 55.6219 306.964 53.8547C309.052 52.0875 311.756 51.2197 314.482 51.4412C317.08 51.6567 319.501 52.8474 321.257 54.774C323.013 56.7006 323.975 59.2204 323.95 61.8272C323.925 64.434 322.914 66.9346 321.12 68.8268C319.327 70.7189 316.884 71.8623 314.282 72.0272C313.779 72.0606 313.273 72.0555 312.77 72.0122V72.0122ZM308.507 55.6902C307.71 56.3563 307.054 57.1755 306.579 58.0995C306.104 59.0234 305.819 60.0332 305.74 61.0692C305.61 62.6291 305.946 64.1926 306.704 65.5618C307.463 66.9311 308.61 68.0446 310.002 68.7617C311.393 69.4788 312.966 69.7671 314.521 69.5903C316.076 69.4135 317.544 68.7794 318.739 67.7683C319.934 66.7572 320.802 65.4144 321.234 63.9098C321.666 62.4053 321.642 60.8064 321.165 59.3156C320.688 57.8247 319.779 56.5088 318.555 55.5342C317.33 54.5596 315.843 53.9701 314.283 53.8402C313.892 53.8124 313.499 53.8074 313.107 53.8252C311.415 53.9441 309.805 54.5967 308.507 55.6892V55.6902Z" fill="#A2A1A1"/>
<path d="M315.013 86.9182C315.869 86.8572 316.74 86.7652 317.613 86.6282C317.888 86.5822 318.164 86.5372 318.423 86.4752C319.754 86.2093 321.062 85.8415 322.336 85.3752C322.352 85.3752 322.366 85.3592 322.382 85.3592C322.435 85.3433 322.486 85.3229 322.535 85.2982C322.627 85.2682 322.718 85.2222 322.825 85.1912C322.945 85.1452 323.047 85.0621 323.116 84.9542C323.184 84.8462 323.217 84.719 323.208 84.5912C323.208 84.5275 323.192 84.4648 323.162 84.4082C323.133 84.3348 323.09 84.2679 323.035 84.2112C322.98 84.1545 322.915 84.1092 322.842 84.0779C322.77 84.0466 322.692 84.0299 322.613 84.0287C322.534 84.0276 322.456 84.042 322.382 84.0712C320.779 84.7009 319.114 85.162 317.414 85.4472C311.09 86.4907 304.609 84.981 299.397 81.2497C294.184 77.5185 290.666 71.8708 289.614 65.5472C289.477 64.7222 289.385 63.8962 289.323 63.0712C288.945 56.8872 290.956 50.794 294.94 46.0495C298.924 41.305 304.578 38.2715 310.735 37.5752C316.891 36.879 323.08 38.5731 328.023 42.3079C332.966 46.0426 336.287 51.5329 337.299 57.6452C337.437 58.4544 337.529 59.2707 337.574 60.0902C337.805 63.6214 337.252 67.16 335.954 70.4522C335.924 70.5352 335.908 70.6228 335.907 70.7112C335.914 70.8256 335.954 70.9356 336.022 71.0278C336.09 71.1201 336.183 71.1907 336.29 71.2312C336.364 71.2605 336.442 71.275 336.521 71.2739C336.6 71.2728 336.678 71.2562 336.75 71.225C336.823 71.1938 336.888 71.1486 336.943 71.092C336.998 71.0354 337.041 70.9686 337.07 70.8952C338.428 67.4362 339.012 63.722 338.781 60.0132C338.72 59.1572 338.629 58.3022 338.491 57.4452C337.425 51.0281 333.936 45.2653 328.744 41.3463C323.552 37.4273 317.053 35.6512 310.59 36.3846C304.126 37.118 298.191 40.305 294.009 45.2876C289.827 50.2703 287.718 56.6684 288.116 63.1612C288.177 64.0172 288.269 64.8882 288.406 65.7612C289.428 71.9596 292.716 77.5571 297.634 81.4661C302.551 85.3751 308.746 87.3166 315.015 86.9132L315.013 86.9182Z" fill="#979696"/>
<g opacity="0.3">
<path opacity="0.3" d="M426.103 102.484C426.302 102.471 426.491 102.394 426.643 102.264C426.794 102.135 426.9 101.96 426.943 101.765C427.111 101.001 427.264 100.206 427.401 99.4262C427.439 99.1836 427.38 98.936 427.237 98.7363C427.094 98.5366 426.879 98.4006 426.637 98.3572C426.517 98.3372 426.394 98.3411 426.275 98.3686C426.156 98.3962 426.044 98.4468 425.945 98.5178C425.845 98.5887 425.761 98.6786 425.697 98.7821C425.632 98.8856 425.588 99.0009 425.568 99.1212C425.446 99.8702 425.308 100.621 425.14 101.352C425.088 101.593 425.131 101.845 425.262 102.053C425.393 102.262 425.601 102.411 425.84 102.468C425.927 102.482 426.015 102.487 426.103 102.484V102.484Z" fill="#4B4B4B"/>
<path opacity="0.3" d="M426.928 95.3862C426.807 95.3828 426.686 95.355 426.575 95.3044C426.464 95.2538 426.365 95.1815 426.282 95.0918C426.2 95.002 426.136 94.8966 426.095 94.7818C426.053 94.6669 426.036 94.545 426.042 94.4232C426.088 93.1232 426.072 91.8102 425.995 90.5232C425.98 90.2472 425.965 89.9722 425.934 89.6972C425.914 89.4524 425.991 89.2094 426.149 89.0207C426.306 88.832 426.531 88.7126 426.775 88.6882C427.021 88.6767 427.261 88.7586 427.449 88.9175C427.636 89.0763 427.756 89.3003 427.784 89.5442C427.814 89.8342 427.83 90.1102 427.845 90.4012C427.937 91.7593 427.952 93.1214 427.891 94.4812C427.882 94.7107 427.788 94.9285 427.627 95.0924C427.466 95.2562 427.25 95.3546 427.02 95.3682C427.005 95.3862 426.96 95.3862 426.928 95.3862ZM425.247 85.0392C424.923 83.4967 424.505 81.9755 423.994 80.4842C423.915 80.2511 423.931 79.9959 424.04 79.7748C424.148 79.5537 424.34 79.3848 424.573 79.3052C424.807 79.2257 425.062 79.242 425.283 79.3506C425.504 79.4591 425.673 79.6511 425.752 79.8842C426.288 81.445 426.727 83.0374 427.066 84.6522C427.092 84.7717 427.093 84.895 427.071 85.0151C427.049 85.1352 427.003 85.2496 426.936 85.3519C426.869 85.4541 426.783 85.5421 426.682 85.6109C426.581 85.6796 426.467 85.7276 426.347 85.7522C426.303 85.7645 426.257 85.7695 426.21 85.7672C425.989 85.7813 425.771 85.7155 425.594 85.5819C425.418 85.4483 425.295 85.2557 425.248 85.0392H425.247ZM422.191 76.1292C421.501 74.713 420.726 73.3401 419.868 72.0182C419.735 71.8115 419.688 71.5601 419.74 71.3193C419.792 71.0785 419.937 70.868 420.143 70.7342C420.35 70.6004 420.602 70.5542 420.842 70.6058C421.083 70.6574 421.294 70.8025 421.427 71.0092C422.333 72.3923 423.15 73.8319 423.872 75.3192C423.926 75.4285 423.958 75.5474 423.966 75.6689C423.973 75.7905 423.957 75.9124 423.917 76.0276C423.877 76.1427 423.815 76.2488 423.734 76.3398C423.653 76.4307 423.554 76.5046 423.444 76.5572C423.337 76.6176 423.216 76.649 423.092 76.6482C422.909 76.654 422.727 76.6081 422.567 76.5159C422.408 76.4236 422.278 76.2887 422.191 76.1262V76.1292ZM417.056 68.2292C416.042 67.0274 414.955 65.8893 413.801 64.8212C413.621 64.6531 413.515 64.4201 413.506 64.1736C413.497 63.9271 413.587 63.6872 413.755 63.5067C413.923 63.3262 414.156 63.22 414.403 63.2112C414.649 63.2025 414.889 63.2921 415.069 63.4602C416.28 64.5841 417.423 65.7785 418.492 67.0372C418.651 67.2263 418.729 67.4702 418.709 67.7162C418.689 67.9622 418.573 68.1903 418.385 68.3512C418.235 68.4793 418.047 68.5545 417.85 68.5652C417.7 68.5782 417.55 68.554 417.411 68.4949C417.273 68.4358 417.151 68.3435 417.056 68.2262V68.2292ZM410.133 61.8412C408.855 60.9227 407.523 60.0805 406.144 59.3192C405.928 59.1999 405.767 58.9993 405.698 58.7616C405.629 58.5239 405.658 58.2685 405.777 58.0517C405.896 57.8349 406.097 57.6744 406.335 57.6055C406.572 57.5365 406.828 57.5649 407.044 57.6842C408.487 58.4843 409.885 59.3616 411.232 60.3122C411.39 60.4235 411.508 60.581 411.572 60.7629C411.636 60.9448 411.641 61.142 411.587 61.327C411.533 61.512 411.423 61.6756 411.272 61.795C411.121 61.9145 410.936 61.9837 410.743 61.9932C410.526 62.0204 410.307 61.9655 410.128 61.8392L410.133 61.8412ZM401.88 57.3172C400.419 56.7368 398.924 56.2469 397.402 55.8502C397.279 55.8257 397.161 55.7761 397.057 55.7046C396.953 55.6331 396.864 55.5411 396.797 55.4343C396.729 55.3275 396.685 55.2081 396.665 55.0833C396.645 54.9585 396.651 54.8311 396.682 54.7087C396.713 54.5863 396.769 54.4715 396.846 54.3713C396.923 54.2712 397.019 54.1878 397.13 54.1262C397.24 54.0645 397.362 54.026 397.487 54.013C397.613 53.9999 397.74 54.0126 397.86 54.0502C399.46 54.4677 401.032 54.9833 402.567 55.5942C402.795 55.6868 402.978 55.8652 403.075 56.0911C403.172 56.317 403.177 56.5721 403.087 56.8012C403.024 56.9667 402.913 57.1099 402.77 57.2131C402.626 57.3164 402.454 57.3752 402.277 57.3822C402.141 57.3914 402.005 57.3685 401.879 57.3152L401.88 57.3172ZM392.756 54.9482C391.195 54.749 389.623 54.6418 388.049 54.6272C387.925 54.6302 387.802 54.6082 387.687 54.5626C387.572 54.5169 387.467 54.4486 387.379 54.3617C387.29 54.2747 387.22 54.1709 387.173 54.0563C387.125 53.9418 387.101 53.8189 387.102 53.695C387.103 53.571 387.129 53.4485 387.179 53.3348C387.228 53.2211 387.3 53.1184 387.389 53.0329C387.479 52.9474 387.585 52.8808 387.701 52.837C387.817 52.7933 387.941 52.7733 388.064 52.7782C389.715 52.7905 391.364 52.9027 393.001 53.1142C393.122 53.1295 393.239 53.1686 393.344 53.2292C393.45 53.2899 393.542 53.3709 393.616 53.4676C393.69 53.5643 393.744 53.6747 393.774 53.7924C393.805 53.9101 393.812 54.0327 393.795 54.1532C393.766 54.3655 393.666 54.5615 393.51 54.7088C393.354 54.8561 393.153 54.9459 392.939 54.9632C392.878 54.9652 392.816 54.9599 392.755 54.9472L392.756 54.9482ZM377.579 55.0392C377.549 54.9207 377.543 54.7973 377.561 54.6763C377.58 54.5553 377.622 54.4393 377.686 54.3351C377.751 54.231 377.835 54.1408 377.935 54.0701C378.035 53.9993 378.148 53.9494 378.267 53.9232C379.642 53.5872 381.067 53.3232 382.485 53.1292C382.7 53.0982 382.913 53.0682 383.127 53.0522C383.248 53.0361 383.371 53.0444 383.488 53.0766C383.606 53.1089 383.716 53.1645 383.811 53.2401C383.907 53.3156 383.986 53.4097 384.045 53.5166C384.103 53.6234 384.139 53.741 384.151 53.8622C384.166 53.9829 384.157 54.1053 384.125 54.2224C384.092 54.3395 384.036 54.4489 383.961 54.5442C383.886 54.6396 383.792 54.7191 383.686 54.778C383.579 54.8368 383.462 54.874 383.341 54.8872C383.141 54.9022 382.941 54.9332 382.729 54.9632C381.372 55.1424 380.025 55.3927 378.694 55.7132C378.634 55.7282 378.587 55.7282 378.526 55.7432C378.311 55.7557 378.098 55.6918 377.925 55.5629C377.752 55.434 377.629 55.2482 377.579 55.0382V55.0392Z" fill="#4B4B4B"/>
</g>
<g opacity="0.3">
<path opacity="0.3" d="M389.778 132.993C388.159 133.07 386.536 133.054 384.918 132.947C384.673 132.929 384.445 132.814 384.285 132.628C384.124 132.441 384.045 132.199 384.063 131.954C384.081 131.709 384.196 131.481 384.382 131.32C384.569 131.16 384.811 131.08 385.056 131.098C386.603 131.205 388.154 131.221 389.702 131.144C389.825 131.138 389.948 131.155 390.064 131.196C390.179 131.237 390.286 131.301 390.377 131.383C390.468 131.466 390.541 131.566 390.594 131.677C390.646 131.788 390.675 131.909 390.68 132.031C390.682 132.277 390.589 132.513 390.422 132.692C390.254 132.871 390.023 132.979 389.778 132.993ZM393.538 131.709C393.517 131.589 393.521 131.465 393.548 131.346C393.575 131.227 393.625 131.114 393.697 131.015C393.768 130.915 393.858 130.831 393.962 130.767C394.066 130.702 394.182 130.659 394.302 130.64C395.83 130.38 397.341 130.028 398.826 129.585C399.063 129.519 399.317 129.547 399.533 129.664C399.75 129.78 399.913 129.977 399.987 130.211C400.057 130.448 400.031 130.703 399.913 130.921C399.796 131.138 399.598 131.3 399.361 131.372C397.805 131.836 396.223 132.209 394.623 132.488C394.593 132.488 394.562 132.504 394.516 132.504C394.286 132.51 394.06 132.432 393.881 132.287C393.702 132.141 393.58 131.936 393.538 131.709V131.709ZM380.088 132.309C378.495 132.002 376.923 131.594 375.381 131.086C375.261 131.051 375.149 130.993 375.052 130.914C374.954 130.835 374.874 130.737 374.816 130.626C374.757 130.515 374.721 130.394 374.711 130.269C374.7 130.144 374.715 130.018 374.754 129.899C374.793 129.78 374.855 129.67 374.938 129.576C375.02 129.481 375.121 129.405 375.234 129.35C375.347 129.295 375.469 129.264 375.594 129.258C375.72 129.252 375.845 129.271 375.962 129.314C377.435 129.792 378.936 130.18 380.456 130.476C380.678 130.519 380.877 130.641 381.015 130.82C381.153 130.999 381.221 131.222 381.206 131.447C381.191 131.673 381.094 131.885 380.934 132.044C380.773 132.203 380.56 132.297 380.334 132.31C380.254 132.332 380.168 132.331 380.088 132.306V132.309ZM402.688 129.209C402.592 128.984 402.588 128.73 402.676 128.501C402.765 128.273 402.939 128.088 403.162 127.986C404.581 127.364 405.959 126.655 407.289 125.862C407.5 125.737 407.752 125.7 407.99 125.76C408.228 125.82 408.433 125.972 408.558 126.183C408.684 126.394 408.721 126.646 408.661 126.884C408.601 127.122 408.448 127.327 408.237 127.452C406.841 128.28 405.396 129.025 403.911 129.683C403.811 129.73 403.701 129.757 403.59 129.76C403.402 129.767 403.216 129.718 403.056 129.619C402.897 129.519 402.77 129.375 402.692 129.203L402.688 129.209ZM370.838 129.301C369.367 128.612 367.938 127.836 366.558 126.978C366.351 126.846 366.203 126.636 366.149 126.396C366.095 126.155 366.138 125.903 366.268 125.694C366.333 125.59 366.417 125.499 366.517 125.428C366.617 125.357 366.73 125.306 366.849 125.279C366.969 125.252 367.093 125.249 367.214 125.271C367.334 125.292 367.449 125.338 367.552 125.404C368.869 126.22 370.232 126.96 371.633 127.62C371.819 127.709 371.97 127.857 372.063 128.041C372.156 128.224 372.185 128.433 372.147 128.635C372.109 128.838 372.005 129.021 371.851 129.158C371.697 129.295 371.503 129.377 371.297 129.392C371.14 129.404 370.982 129.371 370.842 129.295L370.838 129.301ZM362.601 124.166C361.34 123.149 360.14 122.056 359.009 120.895C358.924 120.808 358.857 120.705 358.811 120.591C358.766 120.478 358.743 120.357 358.745 120.235C358.746 120.113 358.771 119.992 358.819 119.88C358.867 119.767 358.937 119.666 359.024 119.58C359.112 119.495 359.215 119.428 359.328 119.382C359.442 119.337 359.563 119.314 359.685 119.315C359.807 119.317 359.928 119.342 360.04 119.39C360.152 119.438 360.254 119.508 360.339 119.595C361.419 120.705 362.568 121.746 363.778 122.712C363.97 122.869 364.091 123.095 364.117 123.341C364.143 123.588 364.071 123.834 363.916 124.027C363.833 124.128 363.731 124.211 363.616 124.271C363.5 124.331 363.373 124.368 363.243 124.378C363.01 124.39 362.781 124.311 362.604 124.157L362.601 124.166ZM355.83 117.212C354.843 115.921 353.939 114.568 353.124 113.161C353.002 112.948 352.969 112.696 353.033 112.459C353.096 112.222 353.251 112.02 353.463 111.897C353.675 111.774 353.928 111.739 354.165 111.802C354.402 111.864 354.605 112.018 354.729 112.229C355.511 113.564 356.374 114.851 357.311 116.081C357.385 116.179 357.438 116.289 357.469 116.407C357.5 116.526 357.507 116.648 357.49 116.769C357.473 116.89 357.432 117.006 357.37 117.111C357.308 117.216 357.226 117.308 357.128 117.381C356.988 117.499 356.811 117.564 356.628 117.565C356.476 117.578 356.323 117.552 356.184 117.489C356.045 117.427 355.924 117.329 355.833 117.206L355.83 117.212Z" fill="#4B4B4B"/>
<path opacity="0.3" d="M411.801 124.887C411.985 124.873 412.159 124.803 412.301 124.687C412.927 124.198 413.554 123.694 414.135 123.174C414.231 123.095 414.31 122.997 414.367 122.887C414.425 122.777 414.459 122.656 414.469 122.532C414.479 122.409 414.465 122.284 414.426 122.166C414.387 122.048 414.325 121.939 414.244 121.845C414.162 121.751 414.063 121.675 413.951 121.62C413.84 121.565 413.718 121.533 413.594 121.526C413.47 121.519 413.346 121.537 413.229 121.578C413.112 121.62 413.004 121.684 412.912 121.768C412.347 122.257 411.766 122.746 411.154 123.204C410.96 123.355 410.833 123.576 410.802 123.82C410.771 124.063 410.837 124.309 410.986 124.504C411.081 124.63 411.204 124.73 411.346 124.797C411.488 124.864 411.645 124.895 411.801 124.887Z" fill="#4B4B4B"/>
</g>
<path d="M414.283 107.381C414.343 107.302 414.375 107.205 414.375 107.106C414.375 107.007 414.343 106.911 414.283 106.831L410.966 102.154C412.003 99.648 412.622 96.9893 412.8 94.2832L417.829 91.5632C417.917 91.5184 417.988 91.4468 418.032 91.3588C418.076 91.2708 418.09 91.1711 418.073 91.0742L416.942 84.3002C416.928 84.2039 416.883 84.1148 416.814 84.046C416.745 83.9772 416.656 83.9324 416.559 83.9182L410.919 82.9552C409.878 80.4493 408.432 78.1312 406.64 76.0932L408.275 70.6072C408.304 70.5124 408.302 70.4107 408.269 70.3171C408.237 70.2235 408.175 70.143 408.092 70.0872L402.498 66.0872C402.419 66.0275 402.323 65.9952 402.223 65.9952C402.124 65.9952 402.028 66.0275 401.948 66.0872L397.272 69.4002C394.766 68.3633 392.108 67.7435 389.401 67.5652L386.681 62.5372C386.637 62.4496 386.565 62.3786 386.478 62.3345C386.39 62.2904 386.29 62.2756 386.193 62.2922L379.422 63.4232C379.326 63.4376 379.237 63.4826 379.168 63.5515C379.099 63.6205 379.054 63.7098 379.039 63.8062L378.076 69.4462C375.571 70.4879 373.252 71.9334 371.214 73.7252L365.727 72.0902C365.632 72.0614 365.531 72.0637 365.437 72.0968C365.344 72.1299 365.263 72.1921 365.207 72.2742L361.207 77.8682C361.148 77.9475 361.116 78.0441 361.116 78.1432C361.116 78.2424 361.148 78.3389 361.207 78.4182L364.524 83.0952C363.488 85.6013 362.868 88.2601 362.69 90.9662L357.661 93.6862C357.574 93.7309 357.503 93.8025 357.459 93.8905C357.414 93.9784 357.4 94.0782 357.416 94.1752L358.547 100.946C358.562 101.042 358.606 101.132 358.675 101.2C358.744 101.269 358.833 101.314 358.929 101.328L364.569 102.291C365.611 104.797 367.057 107.115 368.849 109.153L367.214 114.639C367.185 114.734 367.188 114.836 367.221 114.93C367.254 115.023 367.316 115.104 367.398 115.159L372.991 119.159C373.071 119.219 373.168 119.251 373.267 119.251C373.366 119.251 373.463 119.219 373.542 119.159L378.219 115.843C380.725 116.88 383.384 117.499 386.089 117.677L388.81 122.705C388.855 122.793 388.927 122.864 389.015 122.908C389.103 122.952 389.202 122.967 389.299 122.95L396.07 121.819C396.167 121.805 396.256 121.76 396.325 121.691C396.393 121.622 396.438 121.533 396.452 121.436L397.415 115.796C399.921 114.754 402.239 113.309 404.277 111.517L409.763 113.152C409.858 113.181 409.96 113.179 410.054 113.146C410.147 113.113 410.228 113.05 410.283 112.968L414.283 107.381Z" fill="#C5C4C4"/>
<path d="M387.169 99.6322C386.25 99.557 385.354 99.3011 384.534 98.8792C383.713 98.4573 382.984 97.8778 382.388 97.1737C381.791 96.4696 381.34 95.6548 381.059 94.776C380.778 93.8972 380.673 92.9716 380.75 92.0522C380.904 90.1937 381.791 88.4726 383.214 87.2673C384.637 86.0621 386.48 85.4717 388.339 85.6257C390.197 85.7798 391.919 86.6659 393.124 88.089C394.329 89.5121 394.92 91.3557 394.765 93.2142C394.627 94.8925 393.89 96.4651 392.689 97.646C391.488 98.8268 389.904 99.5373 388.223 99.6482C387.856 99.6632 387.518 99.6472 387.169 99.6322ZM382.599 92.1893C382.489 93.5574 382.923 94.9138 383.806 95.9642C384.244 96.484 384.78 96.9123 385.383 97.2244C385.986 97.5366 386.645 97.7265 387.322 97.7832C388.691 97.8934 390.047 97.4597 391.097 96.5762C391.88 95.9178 392.449 95.0419 392.733 94.0596C393.017 93.0772 393.002 92.0327 392.692 91.0585C392.381 90.0843 391.788 89.2243 390.988 88.5876C390.188 87.9509 389.216 87.5662 388.197 87.4823C387.943 87.4595 387.688 87.4595 387.433 87.4823C386.195 87.5516 385.024 88.066 384.136 88.9309C383.247 89.7957 382.701 90.9526 382.598 92.1882L382.599 92.1893Z" fill="#A2A1A1"/>
<path d="M388.726 109.997C390.511 109.888 392.268 109.507 393.937 108.867C393.984 108.851 394.044 108.82 394.09 108.806C394.272 108.734 394.426 108.607 394.53 108.442C394.635 108.277 394.684 108.083 394.671 107.888C394.664 107.789 394.644 107.692 394.61 107.598C394.518 107.37 394.339 107.188 394.113 107.091C393.888 106.993 393.633 106.989 393.403 107.078C392.368 107.487 391.292 107.785 390.193 107.965C390.132 107.981 390.071 107.981 390.009 107.996C387.447 108.405 384.823 108.158 382.382 107.277C381.053 106.8 379.794 106.147 378.637 105.336C378.622 105.336 378.622 105.321 378.607 105.321C378.576 105.305 378.546 105.274 378.515 105.26C376.84 104.07 375.418 102.558 374.332 100.813C373.245 99.0685 372.517 97.1251 372.188 95.0962C372.097 94.5667 372.036 94.0326 372.004 93.4962C371.747 89.4895 373.039 85.5371 375.615 82.4573C378.191 79.3775 381.852 77.4061 385.841 76.9514C389.831 76.4966 393.842 77.5932 397.045 80.0143C400.248 82.4353 402.397 85.9953 403.047 89.9572C403.138 90.478 403.2 91.0035 403.231 91.5312C403.374 93.8178 403.014 96.1077 402.176 98.2402C402.126 98.3671 402.105 98.504 402.115 98.6402C402.127 98.8514 402.21 99.0524 402.352 99.2097C402.493 99.3671 402.684 99.4713 402.893 99.5052C403.101 99.539 403.315 99.5005 403.499 99.3959C403.683 99.2913 403.826 99.127 403.903 98.9302C404.848 96.5486 405.25 93.9866 405.08 91.4302C404.761 86.8172 402.63 82.5176 399.153 79.4698C395.675 76.422 391.134 74.8734 386.519 75.1619C381.904 75.4504 377.59 77.5526 374.519 81.0097C371.448 84.4669 369.87 88.9983 370.127 93.6152C370.263 95.9158 370.853 98.1667 371.863 100.238C372.873 102.309 374.284 104.16 376.013 105.684C377.742 107.207 379.756 108.372 381.938 109.113C384.121 109.854 386.428 110.155 388.727 109.999L388.726 109.997Z" fill="#ABAAAA"/>
</g>
<defs>
<filter id="filter0_d_2_300" x="1.90735e-06" y="0" width="431.928" height="432.071" filterUnits="userSpaceOnUse" color-interpolation-filters="sRGB">
<feFlood flood-opacity="0" result="BackgroundImageFix"/>
<feColorMatrix in="SourceAlpha" type="matrix" values="0 0 0 0 0 0 0 0 0 0 0 0 0 0 0 0 0 0 127 0" result="hardAlpha"/>
<feOffset dy="4"/>
<feGaussianBlur stdDeviation="2"/>
<feComposite in2="hardAlpha" operator="out"/>
<feColorMatrix type="matrix" values="0 0 0 0 0 0 0 0 0 0 0 0 0 0 0 0 0 0 0.25 0"/>
<feBlend mode="normal" in2="BackgroundImageFix" result="effect1_dropShadow_2_300"/>
<feBlend mode="normal" in="SourceGraphic" in2="effect1_dropShadow_2_300" result="shape"/>
</filter>
</defs>
</svg>
